<?xml version="1.0" encoding="utf-8"?>
<!-- Generator: Adobe Illustrator 25.4.1, SVG Export Plug-In . SVG Version: 6.00 Build 0)  -->
<svg version="1.1" id="图层_1" xmlns="http://www.w3.org/2000/svg" xmlns:xlink="http://www.w3.org/1999/xlink" x="0px" y="0px"
	 viewBox="0 0 1080 1080" style="enable-background:new 0 0 1080 1080;" xml:space="preserve">
<style type="text/css">
	.st0{fill:url(#SVGID_1_);}
	.st1{fill:url(#SVGID_00000029753396416105355740000001780785447580315783_);}
	.st2{fill:url(#SVGID_00000151540250499525684220000013008972800510707642_);}
	.st3{fill:url(#SVGID_00000083776240646750033020000008887943908703739063_);}
	.st4{fill:url(#SVGID_00000103231639582683060910000008542437432652815753_);}
	.st5{fill:url(#SVGID_00000055682265335946769510000013460189626131196849_);}
	.st6{fill:url(#SVGID_00000093886478891861307120000000318560290933833144_);}
	.st7{fill:url(#SVGID_00000078028666948243865950000002982561384936068741_);}
	.st8{fill:url(#SVGID_00000014631397843671015420000011719019089218942096_);}
	.st9{fill:url(#SVGID_00000047026038911926593200000012319839798562576526_);}
	.st10{fill:url(#SVGID_00000086687716435783100260000007325325226753417634_);}
	.st11{fill:url(#SVGID_00000178923838063755935010000012209869853504855964_);}
</style>
<g>
	<linearGradient id="SVGID_1_" gradientUnits="userSpaceOnUse" x1="224.6162" y1="540" x2="878.5981" y2="540">
		<stop  offset="0" style="stop-color:#FFF200"/>
		<stop  offset="0.5117" style="stop-color:#009E96"/>
		<stop  offset="1" style="stop-color:#0065B1"/>
	</linearGradient>
	<path class="st0" d="M488.6,493.8c0,0-54.3-4.3-82.2-44.8c-15.6-22.7-41.7-37.7-70.9-37.6c-36.9,0-68.3,23.3-80.4,56
		c-0.5,1.4-1,2.8-1.4,4.3c-3.5,11.6-9.1,22.4-16.5,31.8c6-6.8,15.7-11.2,27.5-11.2c10.8,0,22.3,4.1,30.4,12.2L284,518.3
		c-6.2-4.6-11.9-7.1-19.2-7.1c-6.9,0-11.1,2.7-11.1,7.6c0,5.2,5.8,7.2,14.1,10.4l11.7,4.6c11.6,4.6,18.5,12.3,18.5,25.3
		c0,15.4-13.1,29-35.7,29c-6.5,0-13.2-1.3-19.6-3.8c4.7,7.4,8.4,15.5,11,24.1c0,0.2,0.1,0.4,0.2,0.5v0
		c11.2,35.2,44.5,60.5,83.5,59.7c28.2-0.6,52.6-15.7,68.6-37c24.7-32.8,60.5-45,82.6-45.7h-30.6l-27.8-57.3c-1.2-3-2.5-5.7-3.5-8.7
		c-1-3.2-2-6.4-3-10.2c1,5.4,1.7,10.4,2,15.1c0.2,4.7,0.5,8.7,0.5,12.2v48.6h-22.4v-91.9h30.6l26.8,55c1.2,2.5,2.2,4.9,3.2,7.7
		c1.2,3.2,2.5,7.4,4,12.2c-0.7-4.5-1.5-8.7-1.7-12.4c-0.2-3.7-0.5-7.2-0.5-10.4l0.2-52H488.6z M386,542.9
		c0,31.2-12.6,45.2-37.5,45.2c-25,0-38-14-38-45.2v-49.1h22.4v51.4c0,17.5,5.3,23.7,15.6,23.7c10.2,0,15.8-6.2,15.8-23.7v-51.4H386
		V542.9z"/>
	
		<linearGradient id="SVGID_00000158733347977055910730000006139308581251792063_" gradientUnits="userSpaceOnUse" x1="224.6162" y1="539.5092" x2="878.5981" y2="539.5092">
		<stop  offset="0" style="stop-color:#FFF200"/>
		<stop  offset="0.5117" style="stop-color:#009E96"/>
		<stop  offset="1" style="stop-color:#0165B2"/>
	</linearGradient>
	<path style="fill:url(#SVGID_00000158733347977055910730000006139308581251792063_);" d="M836.8,587.5c26.3,0,44.2-18.1,44.2-48.5
		c0-30.2-17.9-47.5-44.2-47.5s-44.2,17.1-44.2,47.5C792.6,569.3,810.5,587.5,836.8,587.5z M836.8,510.6c12.7,0,20.6,10.6,20.6,28.5
		c0,17.9-7.9,29.3-20.6,29.3c-12.7,0-20.5-11.4-20.5-29.3C816.3,521.1,824.1,510.6,836.8,510.6z"/>
	
		<linearGradient id="SVGID_00000168815368165135674240000007179343047382844597_" gradientUnits="userSpaceOnUse" x1="224.6162" y1="539.8899" x2="878.5981" y2="539.8899">
		<stop  offset="0" style="stop-color:#FFF200"/>
		<stop  offset="0.5117" style="stop-color:#009E96"/>
		<stop  offset="1" style="stop-color:#0165B2"/>
	</linearGradient>
	<path style="fill:url(#SVGID_00000168815368165135674240000007179343047382844597_);" d="M548.5,548.7c-0.7,2.5-1.2,5-1.7,7.5
		c-0.5,3-0.7,6-1.2,9.4c-0.2-3.2-0.5-6.2-1-8.9c-0.2-2.5-1-5-1.5-7.5l-16.9-55.4h-37.5V586h21.6v-61.6c0-1.7,0-4.5-0.2-8
		c-0.2-3.5-0.5-7.5-0.7-11.7c0.5,3,1.2,6,1.7,8.7c0.5,2.7,1.2,5.2,2,7.5l20.4,64.9h21.9l20.9-66.1c0.7-2.2,1.5-4.7,2-7.2
		c0.5-2.5,1.2-5.2,2-8c-0.2,3.5-0.5,7-0.7,10.2c-0.2,3.2-0.2,6.2-0.2,9.2v61.9h23.1v-91.9h-36.8L548.5,548.7z"/>
	
		<linearGradient id="SVGID_00000009570018357597561250000003022468721765767082_" gradientUnits="userSpaceOnUse" x1="224.6162" y1="539.8849" x2="878.5981" y2="539.8849">
		<stop  offset="0" style="stop-color:#FFF200"/>
		<stop  offset="0.5117" style="stop-color:#009E96"/>
		<stop  offset="1" style="stop-color:#0165B2"/>
	</linearGradient>
	<path style="fill:url(#SVGID_00000009570018357597561250000003022468721765767082_);" d="M707.6,519.6c0.7-2.2,1.5-4.7,2-7.2
		c0.5-2.5,1.2-5.2,2-8c-0.2,3.5-0.5,7-0.7,10.2c-0.2,3.2-0.2,6.2-0.2,9.2v61.9h23.1v-91.9h-36.8L680,548.7c-0.7,2.5-1.2,5-1.7,7.5
		c-0.5,3-0.7,6-1.2,9.4c-0.2-3.2-0.5-6.2-1-8.9c-0.2-2.5-1-5-1.5-7.5l-16.9-55.4h-37.5V586h21.6v-61.6c0-1.7,0-4.5-0.2-8
		c-0.2-3.5-0.5-7.5-0.7-11.7c0.5,3,1.2,6,1.7,8.7s1.2,5.2,2,7.5l20.4,64.9h21.9L707.6,519.6z"/>
	
		<linearGradient id="SVGID_00000082361555939636639700000005399742806213441428_" gradientUnits="userSpaceOnUse" x1="224.6162" y1="539.7607" x2="878.5981" y2="539.7607">
		<stop  offset="0" style="stop-color:#FFF200"/>
		<stop  offset="0.5117" style="stop-color:#009E96"/>
		<stop  offset="1" style="stop-color:#0165B2"/>
	</linearGradient>
	
		<rect x="751.6" y="493.8" style="fill:url(#SVGID_00000082361555939636639700000005399742806213441428_);" width="23.1" height="91.9"/>
	
		<linearGradient id="SVGID_00000034806889600588121010000011571173118685648811_" gradientUnits="userSpaceOnUse" x1="224.6162" y1="537.5555" x2="878.5981" y2="537.5555">
		<stop  offset="0" style="stop-color:#FFF200"/>
		<stop  offset="0.5117" style="stop-color:#009E96"/>
		<stop  offset="1" style="stop-color:#0165B2"/>
	</linearGradient>
	<path style="fill:url(#SVGID_00000034806889600588121010000011571173118685648811_);" d="M275,560.9c0-5.3-5.1-7.1-13.2-10.4l-12-5
		c-9.8-3.9-19-11.9-19-25.3c0-5.5,1.8-10.6,4.9-14.9c-9.2,9.8-18.8,18.8-30.6,25c-3.6,1.7-6.1,5.4-6.1,9.7c0,4.2,2.5,7.9,6,9.7
		c9.9,5.2,18.9,12,26.4,20.2l8.6-10.3c6.5,5.6,15.2,9.4,22.6,9.4C271.1,569,275,565.9,275,560.9z"/>
	
		<linearGradient id="SVGID_00000047041289797459787450000010680197093899362454_" gradientUnits="userSpaceOnUse" x1="224.6162" y1="607.1836" x2="878.5981" y2="607.1836">
		<stop  offset="0" style="stop-color:#FFF200"/>
		<stop  offset="0.5117" style="stop-color:#009E96"/>
		<stop  offset="1" style="stop-color:#0165B2"/>
	</linearGradient>
	<polygon style="fill:url(#SVGID_00000047041289797459787450000010680197093899362454_);" points="734.2,602.6 711.7,602.6 
		713.9,599.4 697.6,599.4 686.7,615 703.1,615 706.6,609.9 710.6,609.9 714.1,615 729.4,615 725.9,609.9 734.2,609.9 	"/>
	
		<linearGradient id="SVGID_00000059991247428230854930000000563098730290693000_" gradientUnits="userSpaceOnUse" x1="224.6162" y1="607.1836" x2="878.5981" y2="607.1836">
		<stop  offset="0" style="stop-color:#FFF200"/>
		<stop  offset="0.5117" style="stop-color:#009E96"/>
		<stop  offset="1" style="stop-color:#0165B2"/>
	</linearGradient>
	<polygon style="fill:url(#SVGID_00000059991247428230854930000000563098730290693000_);" points="759.1,599.4 742.8,599.4 
		731.9,615 748.3,615 751.8,609.9 755.8,609.9 759.3,615 774.6,615 771.1,609.9 779.4,609.9 779.4,602.6 756.9,602.6 	"/>
	
		<linearGradient id="SVGID_00000049920458877105446200000018104483440401491344_" gradientUnits="userSpaceOnUse" x1="224.6162" y1="606.4516" x2="878.5981" y2="606.4516">
		<stop  offset="0" style="stop-color:#FFF200"/>
		<stop  offset="0.5117" style="stop-color:#009E96"/>
		<stop  offset="1" style="stop-color:#0165B2"/>
	</linearGradient>
	<polygon style="fill:url(#SVGID_00000049920458877105446200000018104483440401491344_);" points="871.4,598.6 855,598.6 
		853.2,601.3 816,601.3 814.2,598.6 797.8,598.6 799.6,601.3 788.2,601.3 788.2,611.6 806.8,611.6 808.6,614.3 825,614.3 
		823.2,611.6 846,611.6 844.2,614.3 860.6,614.3 862.4,611.6 881,611.6 881,601.3 869.6,601.3 	"/>
	
		<linearGradient id="SVGID_00000101822504714369411120000005803873558807692184_" gradientUnits="userSpaceOnUse" x1="224.6162" y1="631.2639" x2="878.5981" y2="631.2639">
		<stop  offset="0" style="stop-color:#FFF200"/>
		<stop  offset="0.5117" style="stop-color:#009E96"/>
		<stop  offset="1" style="stop-color:#0165B2"/>
	</linearGradient>
	<path style="fill:url(#SVGID_00000101822504714369411120000005803873558807692184_);" d="M710.3,617.1h-15.5v28.3h15.5h0.9h44.9
		h0.3h16v-28.3h-16h-0.3h-44.9H710.3z M756.1,630v2.2h-44.9V630H756.1z M711.3,640.2v-2.4h44.9v2.4H711.3z M756.1,622.3v2.1h-44.9
		v-2.1H756.1z"/>
	
		<linearGradient id="SVGID_00000163030671784488127220000005907279549310975927_" gradientUnits="userSpaceOnUse" x1="224.6162" y1="642.811" x2="878.5981" y2="642.811">
		<stop  offset="0" style="stop-color:#FFF200"/>
		<stop  offset="0.5117" style="stop-color:#009E96"/>
		<stop  offset="1" style="stop-color:#0165B2"/>
	</linearGradient>
	<path style="fill:url(#SVGID_00000163030671784488127220000005907279549310975927_);" d="M861.8,617.7h-19.2v0h-15.9v0h-19.2v0
		h-15.9v50.2h15.9h19.2h15.9h19.2h15.9v-50.2L861.8,617.7L861.8,617.7z M807.4,628h19.2v11.1h-19.2V628z M807.4,657.6v-11.1h19.2
		v11.1H807.4z M861.8,657.6h-19.2v-11.1h19.2V657.6z M861.8,639.1h-19.2V628h19.2V639.1z"/>
	
		<linearGradient id="SVGID_00000123429367130712406000000017277538013510325382_" gradientUnits="userSpaceOnUse" x1="224.6162" y1="657.6804" x2="878.5981" y2="657.6804">
		<stop  offset="0" style="stop-color:#FFF200"/>
		<stop  offset="0.5117" style="stop-color:#009E96"/>
		<stop  offset="1" style="stop-color:#0165B2"/>
	</linearGradient>
	<polygon style="fill:url(#SVGID_00000123429367130712406000000017277538013510325382_);" points="760.9,646.7 744.5,646.7 
		744.5,649 722.1,649 723.3,646.7 706.9,646.7 705.7,649 686.7,649 686.7,656.4 701.8,656.4 695.3,668.7 711.7,668.7 718.2,656.4 
		744.5,656.4 744.5,668.7 760.9,668.7 760.9,656.4 779.4,656.4 779.4,649 760.9,649 	"/>
</g>
</svg>
